<svg width="466" height="224" viewBox="0 0 466 224" fill="none" xmlns="http://www.w3.org/2000/svg">
<path d="M166.02 134.019C170.846 134.019 174.758 138.018 174.758 142.952V169.752C174.758 174.686 170.846 178.685 166.02 178.685L139.805 178.685C134.979 178.685 131.067 174.686 131.067 169.752V142.952C131.067 138.018 134.979 134.019 139.805 134.019H166.02Z" fill="#36373D"/>
<path d="M78.638 44.6852C83.464 44.6852 87.3762 48.6848 87.3762 53.6186V80.4186C87.3762 85.3523 83.464 89.3519 78.638 89.3519H52.4234C47.5975 89.3519 43.6852 85.3523 43.6852 80.4186L43.6852 53.6186C43.6852 48.6848 47.5975 44.6852 52.4234 44.6852L78.638 44.6852Z" fill="#36373D"/>
<path d="M172.199 91.9684C173.837 90.2931 174.758 88.0209 174.758 85.6516V53.6186C174.758 48.6848 170.846 44.6852 166.02 44.6852L139.805 44.6852C134.979 44.6852 131.067 48.6848 131.067 53.6186V80.4186C131.067 85.3523 127.155 89.3519 122.329 89.3519H90.9957C88.6782 89.3519 86.4556 90.2931 84.8168 91.9684L46.2446 131.402C44.6059 133.077 43.6852 135.35 43.6852 137.719L43.6852 169.752C43.6852 174.686 47.5975 178.685 52.4234 178.685L78.638 178.685C83.464 178.685 87.3762 174.686 87.3762 169.752L87.3762 142.952C87.3762 138.018 91.2884 134.019 96.1144 134.019H127.448C129.765 134.019 131.988 133.077 133.627 131.402L172.199 91.9684Z" fill="#36373D"/>
<path d="M207.526 143.231V52.7811H227.296V92.4227C228.826 89.7427 230.974 87.6583 233.741 86.1694C236.581 84.6061 239.821 83.8244 243.462 83.8244C249.797 83.8244 254.603 85.9089 257.88 90.0777C261.23 94.1722 262.905 100.202 262.905 108.168V143.231H243.134V111.964C243.134 105.19 240.622 101.803 235.598 101.803C232.903 101.803 230.828 102.771 229.372 104.706C227.988 106.567 227.296 109.247 227.296 112.746V143.231H207.526Z" fill="#36373D"/>
<path d="M298.185 145.018C289.228 145.018 282.42 142.71 277.76 138.094C273.172 133.479 270.878 126.742 270.878 117.883V85.6111H290.758V117.213C290.758 123.764 293.27 127.039 298.294 127.039C300.843 127.039 302.7 126.258 303.865 124.694C305.03 123.131 305.613 120.637 305.613 117.213V85.6111H325.492V117.883C325.492 126.742 323.162 133.479 318.501 138.094C313.914 142.71 307.142 145.018 298.185 145.018Z" fill="#36373D"/>
<path d="M333.936 143.231V52.7811H353.706V143.231H333.936Z" fill="#36373D"/>
<path d="M366.456 170.589L380.547 140.104L357.391 85.6111H379.127L390.596 119.446L401.191 85.6111H422.381L386.336 170.589H366.456Z" fill="#36373D"/>
</svg>
