<?xml version="1.0" encoding="UTF-8" standalone="no"?>
<svg
   width="56"
   height="56"
   viewBox="0 0 56 56"
   fill="none"
   version="1.1"
   id="svg6"
   sodipodi:docname="ico.svg"
   inkscape:version="1.2.2 (b0a8486541, 2022-12-01)"
   xml:space="preserve"
   xmlns:inkscape="http://www.inkscape.org/namespaces/inkscape"
   xmlns:sodipodi="http://sodipodi.sourceforge.net/DTD/sodipodi-0.dtd"
   xmlns="http://www.w3.org/2000/svg"
   xmlns:svg="http://www.w3.org/2000/svg"><defs
     id="defs10"><linearGradient
       id="grad1"
       x1="4.3391218"
       y1="7.0415435"
       x2="269.69495"
       y2="7.0415435"
       gradientTransform="matrix(1.2887476,0,0,0.77594712,-181.31171,89.37754)"
       gradientUnits="userSpaceOnUse"><stop
         offset="0%"
         style="stop-color:rgb(37,99,235);stop-opacity:1"
         id="stop1966" /><stop
         offset="100%"
         style="stop-color:rgb(124,58,237);stop-opacity:1"
         id="stop1968" /></linearGradient><linearGradient
       id="grad1-3"
       x1="4.3391218"
       y1="7.0415435"
       x2="269.69495"
       y2="7.0415435"
       gradientTransform="matrix(1.2887476,0,0,0.77594712,-150.53676,59.307692)"
       gradientUnits="userSpaceOnUse"><stop
         offset="0%"
         style="stop-color:rgb(37,99,235);stop-opacity:1"
         id="stop8658" /><stop
         offset="100%"
         style="stop-color:rgb(124,58,237);stop-opacity:1"
         id="stop8660" /></linearGradient><linearGradient
       id="grad1-6"
       x1="4.3391218"
       y1="7.0415433"
       x2="269.69495"
       y2="7.0415433"
       gradientTransform="matrix(1.2887476,0,0,0.77594712,-169.906,117.358)"
       gradientUnits="userSpaceOnUse"><stop
         offset="0%"
         style="stop-color:rgb(37,99,235);stop-opacity:1"
         id="stop35350" /><stop
         offset="100%"
         style="stop-color:rgb(124,58,237);stop-opacity:1"
         id="stop35352" /></linearGradient></defs><sodipodi:namedview
     id="namedview8"
     pagecolor="#ffffff"
     bordercolor="#666666"
     borderopacity="1.0"
     inkscape:showpageshadow="2"
     inkscape:pageopacity="0.0"
     inkscape:pagecheckerboard="0"
     inkscape:deskcolor="#d1d1d1"
     showgrid="true"
     inkscape:zoom="2.8284271"
     inkscape:cx="80.433396"
     inkscape:cy="121.79914"
     inkscape:window-width="3780"
     inkscape:window-height="2129"
     inkscape:window-x="60"
     inkscape:window-y="0"
     inkscape:window-maximized="1"
     inkscape:current-layer="svg6"><inkscape:grid
       type="xygrid"
       id="grid12875"
       originx="0"
       originy="0" /></sodipodi:namedview><path
     style="fill:#7c3aed;fill-opacity:1;stroke-width:1.27848"
     d="M 53.155624,31.734139 C 52.885096,31.018443 52.494391,30.353758 52,29.767956 51.49372,29.171798 50.894623,28.66002 50.225334,28.25231 49.524339,27.82389 48.757503,27.512709 47.955253,27.331033 V 27.20804 c 1.385626,-0.355034 2.621665,-1.138876 3.529134,-2.238372 0.921532,-1.108576 1.382428,-2.470931 1.382684,-4.087066 0,-1.396873 -0.295843,-2.608365 -0.8874,-3.634737 -0.580303,-1.013966 -1.376035,-1.889987 -2.331956,-2.567072 -0.993001,-0.698437 -2.104517,-1.213411 -3.281235,-1.520375 -1.231312,-0.329081 -2.501231,-0.494774 -3.776394,-0.49273 -1.199091,-0.0014 -2.392942,0.157255 -3.549588,0.471636 -1.130311,0.303383 -2.208457,0.773482 -3.198646,1.394443 -0.974334,0.61278 -1.833348,1.390099 -2.538306,2.296672 -0.738454,0.961167 -1.284879,2.054017 -1.609614,3.219485 l 6.438584,1.476524 c 0.184868,-0.926519 0.688338,-1.760221 1.423978,-2.358296 0.72797,-0.587464 1.641831,-0.899797 2.579475,-0.881773 0.921403,-0.01319 1.821074,0.27705 2.559017,0.82539 0.742927,0.550518 1.114328,1.348294 1.114328,2.393455 0,0.715059 -0.144468,1.292935 -0.433661,1.733373 -0.290473,0.441333 -0.687825,0.803145 -1.155625,1.052193 -0.508454,0.270274 -1.059737,0.451691 -1.629942,0.536325 -0.628249,0.09794 -1.263271,0.146132 -1.899192,0.144213 h -2.021799 v 5.003485 h 1.85726 c 0.719403,3.83e-4 1.4374,0.06212 2.146194,0.184614 0.667369,0.107515 1.314412,0.315019 1.919264,0.615208 0.544761,0.27091 1.012943,0.67261 1.361971,1.168791 0.359894,0.547447 0.540161,1.192187 0.515997,1.845622 0.01996,0.598076 -0.115064,1.191165 -0.392111,1.722504 -0.243042,0.443635 -0.581199,0.828586 -0.990571,1.127881 -0.411162,0.292645 -0.872823,0.50807 -1.362101,0.635662 -0.490683,0.134371 -0.997347,0.203408 -1.506441,0.20507 -1.320675,0 -2.407387,-0.362324 -3.26001,-1.08684 -0.805959,-0.653052 -1.395597,-1.531882 -1.692206,-2.522326 l -6.438583,1.681594 c 0.642695,2.465048 2.23671,4.579409 4.436859,5.885254 1.06498,0.628375 2.22009,1.091699 3.425703,1.373862 1.263782,0.302105 2.559273,0.453479 3.858982,0.451176 1.347013,0 2.687506,-0.186147 3.982869,-0.553071 1.266595,-0.349283 2.461343,-0.917699 3.529261,-1.679165 1.050021,-0.756225 1.917218,-1.735672 2.538306,-2.867005 0.646019,-1.159714 0.969348,-2.531785 0.969861,-4.116086 0.0045,-0.789721 -0.135649,-1.573687 -0.413975,-2.313421 z"
     id="path9195" /><path
     style="fill:#2563eb;fill-opacity:1;stroke-width:1.27848"
     d="m 29.506443,38.464603 -4.911562,-4.593475 c -0.659186,0.897371 -1.521653,1.628024 -2.517594,2.132772 -1.046058,0.547191 -2.270465,0.820533 -3.673348,0.82015 -1.147952,0.01267 -2.286189,-0.210825 -3.343114,-0.656119 -0.992614,-0.419345 -1.885511,-1.041073 -2.620896,-1.825041 -0.751493,-0.81542 -1.333588,-1.770063 -1.712787,-2.809471 -0.42369,-1.15601 -0.63349,-2.378754 -0.619171,-3.609039 -0.01319,-1.210215 0.196633,-2.412506 0.619171,-3.547544 0.38802,-1.039793 0.976891,-1.994182 1.733373,-2.809346 0.749064,-0.797009 1.655255,-1.432159 2.66219,-1.865821 1.074824,-0.459875 2.234922,-0.690385 3.404995,-0.676704 1.133377,0.0014 2.255249,0.224245 3.301946,0.656247 1.040303,0.412183 1.941892,1.108959 2.600183,2.009523 l 4.787674,-4.757375 c -1.238212,-1.394444 -2.854729,-2.453924 -4.849553,-3.178571 -3.977243,-1.442388 -8.338158,-1.449675 -12.320131,-0.02046 -1.866591,0.674656 -3.5784841,1.7133 -5.0353189,3.054813 -1.4500585,1.35328 -2.5962978,2.995495 -3.3637737,4.819255 -0.8115064,1.886662 -1.2172595,3.991945 -1.2172595,6.315978 -0.026222,2.136733 0.380631,4.256719 1.1963306,6.233898 0.7514555,1.827084 1.8742995,3.480295 3.2981498,4.856459 1.423977,1.376033 3.1183547,2.445359 4.9771457,3.140984 1.996484,0.753414 4.117366,1.129031 6.25282,1.107296 2.476428,0 4.663918,-0.430595 6.562471,-1.29191 1.831688,-0.812351 3.464955,-2.00863 4.787675,-3.506761 z"
     id="path4" /></svg>
