
<svg width="56" height="56" viewBox="0 0 56 56" fill="none" xmlns="http://www.w3.org/2000/svg">
<circle cx="28" cy="28" r="28" fill="white"/>
<path fill-rule="evenodd" clip-rule="evenodd" d="M29.1783 36.1777L25.3366 32.5848C24.821 33.2867 24.1464 33.8582 23.3674 34.253C22.5492 34.681 21.5915 34.8948 20.4942 34.8945C19.5963 34.9044 18.706 34.7296 17.8793 34.3813C17.1029 34.0533 16.4045 33.567 15.8293 32.9538C15.2415 32.316 14.7862 31.5693 14.4896 30.7563C14.1582 29.8521 13.9941 28.8957 14.0053 27.9334C13.995 26.9868 14.1591 26.0464 14.4896 25.1586C14.7931 24.3453 15.2537 23.5988 15.8454 22.9612C16.4313 22.3378 17.1401 21.841 17.9277 21.5018C18.7684 21.1421 19.6758 20.9618 20.591 20.9725C21.4775 20.9735 22.355 21.1479 23.1737 21.4858C23.9874 21.8082 24.6926 22.3532 25.2075 23.0576L28.9523 19.3365C27.9838 18.2458 26.7194 17.4171 25.1591 16.8503C22.0482 15.7221 18.6372 15.7164 15.5226 16.8343C14.0626 17.362 12.7236 18.1744 11.5841 19.2237C10.4499 20.2822 9.55334 21.5667 8.95304 22.9932C8.3183 24.4689 8.00093 26.1156 8.00093 27.9334C7.98042 29.6047 8.29865 31.2629 8.93667 32.8094C9.52444 34.2385 10.4027 35.5316 11.5164 36.608C12.6302 37.6843 13.9555 38.5207 15.4094 39.0648C16.971 39.6541 18.6299 39.9479 20.3002 39.9309C22.2372 39.9309 23.9482 39.5941 25.4332 38.9204C26.8659 38.285 28.1434 37.3493 29.178 36.1775L29.1783 36.1777ZM47.6761 30.9133C47.4645 30.3535 47.1589 29.8336 46.7722 29.3754C46.3762 28.9091 45.9076 28.5088 45.3841 28.1899C44.8358 27.8548 44.236 27.6114 43.6085 27.4693V27.3731C44.6923 27.0954 45.6591 26.4823 46.3689 25.6223C47.0897 24.7552 47.4502 23.6896 47.4504 22.4255C47.4504 21.3329 47.219 20.3853 46.7563 19.5825C46.3024 18.7894 45.68 18.1042 44.9323 17.5746C44.1556 17.0283 43.2862 16.6255 42.3658 16.3854C41.4027 16.128 40.4094 15.9984 39.412 16C38.4741 15.999 37.5403 16.123 36.6356 16.3689C35.7515 16.6062 34.9082 16.9739 34.1337 17.4596C33.3716 17.9389 32.6997 18.5469 32.1483 19.256C31.5707 20.0078 31.1433 20.8626 30.8893 21.7742L35.9254 22.9291C36.07 22.2044 36.4638 21.5523 37.0392 21.0845C37.6086 20.625 38.3234 20.3807 39.0568 20.3948C39.7775 20.3845 40.4812 20.6115 41.0584 21.0404C41.6395 21.471 41.93 22.095 41.93 22.9125C41.93 23.4718 41.817 23.9238 41.5908 24.2683C41.3636 24.6135 41.0528 24.8965 40.6869 25.0913C40.2892 25.3027 39.858 25.4446 39.412 25.5108C38.9206 25.5874 38.4239 25.6251 37.9265 25.6236H36.3451V29.5372H37.7978C38.3605 29.5375 38.9221 29.5858 39.4765 29.6816C39.9985 29.7657 40.5046 29.928 40.9777 30.1628C41.4038 30.3747 41.77 30.6889 42.043 31.077C42.3245 31.5052 42.4655 32.0095 42.4466 32.5206C42.4622 32.9884 42.3566 33.4523 42.1399 33.8679C41.9498 34.2149 41.6853 34.516 41.3651 34.7501C41.0435 34.979 40.6824 35.1475 40.2997 35.2473C39.9159 35.3524 39.5196 35.4064 39.1214 35.4077C38.0884 35.4077 37.2384 35.1243 36.5715 34.5576C35.9411 34.0468 35.4799 33.3594 35.2479 32.5847L30.2118 33.9C30.7145 35.8281 31.9613 37.4819 33.6822 38.5033C34.5152 38.9948 35.4187 39.3572 36.3617 39.5779C37.3502 39.8142 38.3635 39.9326 39.3801 39.9308C40.4337 39.9308 41.4822 39.7852 42.4954 39.4982C43.4861 39.225 44.4206 38.7804 45.2559 38.1848C46.0772 37.5933 46.7555 36.8272 47.2413 35.9423C47.7466 35.0352 47.9995 33.962 47.9999 32.7228C48.0035 32.1051 47.8938 31.4919 47.6761 30.9133Z" fill="#2CD5FF"/>
</svg>
