<svg xmlns="http://www.w3.org/2000/svg" width="353" height="217">
  <metadata><?xpacket begin="﻿" id="W5M0MpCehiHzreSzNTczkc9d"?>
<x:xmpmeta xmlns:x="adobe:ns:meta/" x:xmptk="Adobe XMP Core 5.6-c142 79.160924, 2017/07/13-01:06:39        ">
   <rdf:RDF xmlns:rdf="http://www.w3.org/1999/02/22-rdf-syntax-ns#">
      <rdf:Description rdf:about=""/>
   </rdf:RDF>
</x:xmpmeta>

   


                           
<?xpacket end="w"?></metadata>
  <defs>
 <linearGradient id="grad1" x1="0%" y1="0%" x2="100%" y2="0%">
      <stop offset="0%" style="stop-color:rgb(37,99,235);stop-opacity:1" />
      <stop offset="100%" style="stop-color:rgb(124,58,237);stop-opacity:1" />
    </linearGradient>
  </defs>
  <path fill="url(#grad1)" id="C3" class="cls-1" d="M186.654,179.068L153.81,148.156a47.635,47.635,0,0,1-16.836,14.352q-10.492,5.524-24.564,5.52a55.69,55.69,0,0,1-22.356-4.416A51.5,51.5,0,0,1,72.528,151.33a56.524,56.524,0,0,1-11.454-18.906,68.659,68.659,0,0,1-4.14-24.288,66.746,66.746,0,0,1,4.14-23.874A57.254,57.254,0,0,1,72.666,65.356,53.435,53.435,0,0,1,90.468,52.8a55.92,55.92,0,0,1,22.77-4.554,57.731,57.731,0,0,1,22.08,4.416,39.637,39.637,0,0,1,17.388,13.524l32.016-32.016q-12.42-14.076-32.43-21.39a120.7,120.7,0,0,0-82.386-.138A99.654,99.654,0,0,0,36.234,33.2,94.521,94.521,0,0,0,13.74,65.632Q5.6,84.676,5.6,108.136a107.154,107.154,0,0,0,8,41.952,96.536,96.536,0,0,0,55.338,53.82,114.489,114.489,0,0,0,41.814,7.452q24.84,0,43.884-8.694a93.037,93.037,0,0,0,32.016-23.6h0ZM344.8,133.774a45.488,45.488,0,0,0-7.728-13.231,49.13,49.13,0,0,0-11.868-10.2,50.315,50.315,0,0,0-15.18-6.2v-0.828a45.072,45.072,0,0,0,23.6-15.063q9.243-11.191,9.246-27.505,0-14.1-5.934-24.46a54,54,0,0,0-15.594-17.276A67.767,67.767,0,0,0,299.4,8.78a96.594,96.594,0,0,0-25.254-3.316A89.575,89.575,0,0,0,250.41,8.638a78.356,78.356,0,0,0-21.39,9.384,66.172,66.172,0,0,0-16.974,15.456,63.721,63.721,0,0,0-10.764,21.666l43.056,9.936a27.386,27.386,0,0,1,9.522-15.87,26.545,26.545,0,0,1,17.25-5.934,27.9,27.9,0,0,1,17.112,5.554q7.452,5.557,7.452,16.107,0,7.219-2.9,11.665a21.192,21.192,0,0,1-7.728,7.081,33.656,33.656,0,0,1-10.9,3.61,80.411,80.411,0,0,1-12.7.97H247.926v33.672h12.42a84.053,84.053,0,0,1,14.352,1.242,44.769,44.769,0,0,1,12.834,4.14,24.478,24.478,0,0,1,9.108,7.866,21.276,21.276,0,0,1,3.45,12.42,23.5,23.5,0,0,1-2.622,11.592,23.169,23.169,0,0,1-6.624,7.59,27.706,27.706,0,0,1-9.108,4.278,38.385,38.385,0,0,1-10.074,1.38q-13.248,0-21.8-7.314a34.653,34.653,0,0,1-11.316-16.974l-43.056,11.316a65.17,65.17,0,0,0,29.67,39.606,81.443,81.443,0,0,0,22.908,9.246,109.52,109.52,0,0,0,25.806,3.036,97.143,97.143,0,0,0,26.634-3.722,74.773,74.773,0,0,0,23.6-11.3,58.328,58.328,0,0,0,16.974-19.294q6.481-11.707,6.486-27.7A43.749,43.749,0,0,0,344.8,133.774Z"/>
</svg>